# AST/ASF file generated using VICON BodyLanguage
# -----------------------------------------------
:version 1.10
:name VICON
:units
  mass 1.0
  length 0.45
  angle deg
:documentation
   .ast/.asf automatically generated from VICON data using
   VICON BodyBuilder and BodyLanguage model FoxedUp or BRILLIANT.MOD
:root
   order TX TY TZ RX RY RZ
   axis XYZ
   position 0 0 0  
   orientation 0 0 0 
:bonedata
  begin
     id 1 
     name lhipjoint
     direction 0.711131 -0.61297 0.344326 
     length 2.29162 
     axis 0 0 0  XYZ
  end
  begin
     id 2 
     name lfemur
     direction 0.34202 -0.939693 0  
     length 6.71424  
     axis 0 0 20  XYZ
    dof rx ry rz
    limits (-160.0 20.0)
           (-70.0 70.0)
           (-60.0 70.0)
  end
  begin
     id 3 
     name ltibia
     direction 0.34202 -0.939693 0   
     length 6.7087   
     axis 0 0 20   XYZ
    dof rx
    limits (-10.0 170.0)
  end
  begin
     id 4 
     name lfoot
     direction 0.0230374 -0.0632947 0.997729   
     length 1.56743   
     axis -90 7.62852e-016 20   XYZ
    dof rx rz
    limits (-45.0 90.0)
           (-70.0 20.0)
  end
  begin
     id 5 
     name ltoes
     direction 1.53585e-011 -4.21885e-011 1   
     length 0.802914   
     axis -90 7.62852e-016 20   XYZ
    dof rx
    limits (-90.0 20.0)
  end
  begin
     id 6 
     name rhipjoint
     direction -0.733192 -0.592884 0.333043   
     length 2.36925  
     axis 0 0 0  XYZ 
  end
  begin
     id 7 
     name rfemur
     direction -0.34202 -0.939693 0   
     length 6.67027   
     axis 0 0 -20   XYZ
    dof rx ry rz
    limits (-160.0 20.0)
           (-70.0 70.0)
           (-70.0 60.0)
  end
  begin
     id 8 
     name rtibia
     direction -0.34202 -0.939693 0   
     length 6.6862   
     axis 0 0 -20   XYZ
    dof rx
    limits (-10.0 170.0)
 end
 begin
     id 9 
     name rfoot
     direction -0.0949739 -0.260939 0.960672   
     length 1.67698  
     axis -90 -7.62852e-016 -20   XYZ
    dof rx rz
    limits (-45.0 90.0)
           (-20.0 70.0)
  end
  begin
     id 10 
     name rtoes
     direction -1.5353e-011 -4.21868e-011 1   
     length 0.846298   
     axis -90 -7.62852e-016 -20   XYZ
    dof rx
    limits (-90.0 20.0)
  end
  begin
     id 11 
     name lowerback
     direction -0.0206828 0.999785 -0.00109866   
     length 2.04382   
     axis 0 0 0   XYZ
    dof rx ry rz
    limits (-20.0 45.0)
           (-30.0 30.0)
           (-30.0 30.0)
  end
  begin
     id 12 
     name upperback
     direction -0.0105003 0.999727 -0.0208904   
     length 2.04538   
     axis 0 0 0   XYZ
    dof rx ry rz
    limits (-20.0 45.0)
           (-30.0 30.0)
           (-30.0 30.0)
  end
  begin
     id 13 
     name thorax
     direction -0.000416255 0.999808 -0.0196023   
     length 2.0399   
     axis 0 0 0   XYZ
    dof rx ry rz
    limits (-20.0 45.0)
           (-30.0 30.0)
           (-30.0 30.0)
  end
  begin
     id 14 
     name lowerneck
     direction 0.0627861 0.989205 0.13241   
     length 1.46207   
     axis 0 0 0   XYZ
    dof rx ry rz
    limits (-20.0 45.0)
           (-30.0 30.0)
           (-30.0 30.0)
  end
  begin
     id 15 
     name upperneck
     direction 0.00627179 0.994526 0.104303   
     length 1.41419   
     axis 0 0 0   XYZ
    dof rx ry rz
    limits (-20.0 45.0)
           (-30.0 30.0)
           (-30.0 30.0)
  end
  begin
     id 16
     name head
     direction -0.00443838 0.999688 0.0245968  
     length 1.50718  
     axis 0 0 0   XYZ
    dof rx ry rz
    limits (-20.0 45.0)
           (-30.0 30.0)
           (-30.0 30.0)
  end
  begin
     id 17 
     name lclavicle
     direction 0.758742 0.650995 -0.0227258  
     length 2.86888  
     axis 0 0 0   XYZ
    dof ry rz
    limits (-20.0 10.0)
           (0.0 20.0)
  end
  begin
     id 18 
     name lhumerus
     direction 1 -4.48962e-011 1.06664e-027   
     length 4.65776   
     axis -180 -30 -90   XYZ
    dof rx ry rz
    limits (-60.0 90.0)
           (-90.0 90.0)
           (-90.0 90.0)
  end
  begin
     id 19
     name lradius
     direction 1 -4.48968e-011 1.40404e-026   
     length 3.55539   
     axis -180 -30 -90   XYZ
    dof rx
    limits (-10.0 170.0)
  end
  begin
     id 20
     name lwrist
     direction 1 -4.48976e-011 3.32647e-026   
     length 1.77769   
     axis -2.20186e-014 90 90   XYZ
    dof ry
    limits (-180.0 0.0)
 end
  begin
     id 21 
     name lhand
     direction 1 -4.48982e-011 6.65293e-026   
     length 0.707264   
     axis -4.24514e-014 90 90   XYZ
    dof rx rz
    limits (-90.0 90.0)
           (-45.0 45.0)
  end
  begin
     id 22 
     name lfingers
     direction 1 -4.48966e-011 1.33059e-025   
     length 0.570215   
     axis -8.49028e-014 90 90   XYZ
    dof rx
    limits (0.0 90.0)
  end
  begin
     id 23
     name lthumb
     direction 0.707107 -6.3493e-011 0.707107   
     length 0.818718   
     axis -90 45 2.85299e-015   XYZ
    dof rx rz
    limits (-45.0 45.0)
           (-45.0 45.0)
  end
  begin
     id 24 
     name rclavicle
     direction -0.870343 0.482028 -0.100759   
     length 3.2251  
     axis 0 0 0   XYZ 
    dof ry rz
    limits (-10.0 20.0)
           (-20.0 0.0)
  end
  begin
     id 25 
     name rhumerus
     direction -1 -4.48974e-011 -9.45849e-028  
     length 4.71925   
     axis -180 30 90   XYZ
    dof rx ry rz
    limits (-90.0 60.0)
           (-90.0 90.0)
           (-90.0 90.0)
  end
  begin
     id 26 
     name rradius
     direction -1 -4.48965e-011 1.17607e-026   
     length 3.5699   
     axis -180 30 90   XYZ
    dof rx
    limits (-10.0 170.0)
  end
  begin
     id 27 
     name rwrist
     direction -1 -4.48968e-011 3.32647e-026   
     length 1.78495   
     axis -2.20186e-014 -90 -90   XYZ
    dof ry
    limits (-180.0 0.0)
  end
  begin
     id 28
     name rhand
     direction -1 -4.48995e-011 6.65293e-026   
     length 0.507757   
     axis -4.24514e-014 -90 -90   XYZ
    dof rx rz
    limits (-90.0 90.0)
           (-45.0 45.0)
  end
  begin
     id 29
     name rfingers
     direction -1 -4.48864e-011 1.33059e-025   
     length 0.409367   
     axis -8.49028e-014 -90 -90   XYZ
    dof rx
    limits (0.0 90.0)
  end
  begin
     id 30
     name rthumb
     direction -0.707107 -6.3494e-011 0.707107   
     length 0.587771   
     axis -90 -45 -2.85299e-015   XYZ
    dof rx rz
    limits (-45.0 45.0)
           (-45.0 45.0)
  end
:hierarchy
  begin
    root lhipjoint rhipjoint lowerback
    lhipjoint lfemur
    lfemur ltibia
    ltibia lfoot
    lfoot ltoes
    rhipjoint rfemur
    rfemur rtibia
    rtibia rfoot
    rfoot rtoes
    lowerback upperback
    upperback thorax
    thorax lowerneck lclavicle rclavicle
    lowerneck upperneck
    upperneck head
    lclavicle lhumerus
    lhumerus lradius
    lradius lwrist
    lwrist lhand lthumb
    lhand lfingers
    rclavicle rhumerus
    rhumerus rradius
    rradius rwrist
    rwrist rhand rthumb
    rhand rfingers
  end

#!OML:ASF E:\Steps\Project 1\Capture day 1\Session 2\Subject.ASF
:FULLY-SPECIFIED
:DEGREES
1
root 8.13193 16.3017 31.1987 -152.134 -2.2001 178.113
lowerback -29.6038 -1.34193 -6.84993
upperback -1.14562 -0.029445 -0.470097
thorax 14.302 -0.712759 3.13448
lowerneck -7.64227 -2.39569 1.33567
upperneck 6.70469 -3.74249 3.51741
head 3.57989 -1.70588 0.716141
rclavicle -4.27387e-015 1.59028e-015
rhumerus -37.5803 -20.981 -77.7305
rradius 32.102
rwrist 0.671404
rhand -7.48909 -52.9558
rfingers 7.12502
rthumb 18.4004 -82.1055
lclavicle -4.27387e-015 1.59028e-015
lhumerus -28.4802 9.14823 80.1418
lradius 19.1855
lwrist -5.29905
lhand -21.7237 -11.6725
lfingers 7.12502
lthumb 4.67558 18.2559
rfemur -23.1898 7.4752 17.9871
rtibia 4.56262
rfoot -18.7189 -12.3876
rtoes -31.7758
lfemur -25.388 -10.7925 -17.9224
ltibia 8.06265
lfoot -9.08232 5.54327
ltoes -42.9417
2
root 8.13249 16.3046 31.1975 -152.139 -2.22472 178.155
lowerback -29.5781 -1.36716 -6.83046
upperback -1.12164 -0.0712477 -0.416414
thorax 14.3236 -0.730199 3.16715
lowerneck -7.8161 -2.46346 1.34688
upperneck 6.80842 -3.83531 3.44702
head 3.64933 -1.74979 0.683404
rclavicle 6.4605e-016 -5.56597e-015
rhumerus -37.5051 -21.0133 -77.6549
rradius 31.9343
rwrist 0.734389
rhand -7.47188 -53.0087
rfingers 7.12502
rthumb 18.4169 -82.1569
lclavicle 6.4605e-016 -5.56597e-015
lhumerus -28.4484 9.36367 80.1383
lradius 19.122
lwrist -5.38763
lhand -21.6107 -11.4248
lfingers 7.12502
lthumb 4.78465 18.5012
rfemur -23.2165 7.27057 18.0924
rtibia 4.64791
rfoot -18.7914 -12.1547
rtoes -31.7386
lfemur -25.4096 -10.6862 -17.8927
ltibia 8.11058
lfoot -9.05882 5.45528
ltoes -43.0877
3
root 8.13235 16.3027 31.1995 -151.988 -2.18369 178.131
lowerback -29.671 -1.36935 -6.86872
upperback -1.15681 -0.066149 -0.405867
thorax 14.3236 -0.73377 3.19922
lowerneck -7.81243 -2.54771 1.2886
upperneck 6.77758 -3.9449 3.49924
head 3.64198 -1.80399 0.704847
rclavicle 9.83984e-015 -2.34566e-014
rhumerus -37.5432 -20.9542 -77.603
rradius 31.89
rwrist 0.676445
rhand -7.44779 -53.1467
rfingers 7.12502
rthumb 18.4401 -82.2927
lclavicle 9.83984e-015 -2.34566e-014
lhumerus -28.393 9.59697 80.0915
lradius 18.9791
lwrist -5.67079
lhand -21.3364 -11.487
lfingers 7.12502
lthumb 5.04958 18.4329
rfemur -23.4186 7.59229 17.9508
rtibia 4.70491
rfoot -18.8653 -12.3782
rtoes -31.2426
lfemur -25.6476 -10.5495 -17.9283
ltibia 8.22104
lfoot -9.05461 5.39146
ltoes -42.9101
4
root 8.1334 16.3073 31.1997 -151.995 -2.22797 178.157
lowerback -29.5654 -1.35275 -6.82493
upperback -1.19475 -0.068693 -0.425868
thorax 14.2319 -0.728608 3.15378
lowerneck -7.71157 -2.56933 1.22589
upperneck 6.63826 -3.97364 3.64797
head 3.57949 -1.81833 0.764985
rclavicle 1.11319e-014 -1.19271e-014
rhumerus -37.6767 -20.9647 -77.5881
rradius 31.9241
rwrist 0.670509
rhand -7.315 -53.1362
rfingers 7.12502
rthumb 18.5678 -82.27
lclavicle 1.11319e-014 -1.19271e-014
lhumerus -28.3652 9.62654 80.0077
lradius 18.8235
lwrist -5.84476
lhand -21.2559 -11.6807
lfingers 7.12502
lthumb 5.12723 18.2373
rfemur -23.3839 7.9415 17.9047
rtibia 4.66273
rfoot -18.8383 -12.7514
rtoes -30.9984
lfemur -25.6735 -10.6232 -17.8602
ltibia 8.23909
lfoot -8.96373 5.50821
ltoes -42.9341
5
root 8.13591 16.3094 31.1997 -151.891 -2.29578 178.279
lowerback -29.6101 -1.33604 -6.69573
upperback -1.23536 -0.0983424 -0.402398
thorax 14.2098 -0.735267 3.09684
lowerneck -7.77031 -2.62639 1.28493
upperneck 6.70517 -4.0574 3.60213
head 3.61282 -1.85837 0.733835
rclavicle -2.08724e-015 2.38542e-014
rhumerus -37.7082 -20.9576 -77.5885
rradius 31.8614
rwrist 0.681739
rhand -7.23193 -52.9814
rfingers 7.12502
rthumb 18.6477 -82.1076
lclavicle -2.08724e-015 2.38542e-014
lhumerus -28.3321 9.7252 79.9207
lradius 18.6926
lwrist -5.99075
lhand -21.3706 -11.7807
lfingers 7.12502
lthumb 5.01649 18.1399
rfemur -23.5331 7.68361 18.1301
rtibia 4.73187
rfoot -18.8353 -12.5378
rtoes -31.2658
lfemur -25.8273 -10.7514 -17.6031
ltibia 8.24121
lfoot -8.92801 5.60426
ltoes -42.713
6
root 8.13851 16.3073 31.1986 -151.744 -2.29026 178.27
lowerback -29.7499 -1.35961 -6.72799
upperback -1.25468 -0.120488 -0.372632
thorax 14.2526 -0.752268 3.13547
lowerneck -7.74344 -2.72284 1.19547
upperneck 6.72012 -4.18473 3.6794
head 3.61914 -1.92103 0.768199
rclavicle -9.54166e-015 -7.55382e-015
rhumerus -37.6298 -20.9579 -77.5261
rradius 31.675
rwrist 0.740651
rhand -7.33872 -53.025
rfingers 7.12502
rthumb 18.545 -82.161
lclavicle -9.54166e-015 -7.55382e-015
lhumerus -28.316 9.9508 79.8832
lradius 18.6433
lwrist -6.14917
lhand -21.3124 -11.8107
lfingers 7.12502
lthumb 5.07269 18.1086
rfemur -23.7884 7.4552 18.1667
rtibia 4.89623
rfoot -18.8561 -12.299
rtoes -31.1845
lfemur -25.9975 -10.8595 -17.5302
ltibia 8.26536
lfoot -9.00334 5.62082
ltoes -41.8544
7
root 8.14102 16.3106 31.1941 -151.907 -2.25601 178.148
lowerback -29.5663 -1.40061 -6.88505
upperback -1.23971 -0.127357 -0.369992
thorax 14.1856 -0.760282 3.22348
lowerneck -7.63817 -2.80905 1.04726
upperneck 6.73951 -4.29488 3.79699
head 3.61451 -1.97632 0.828242
rclavicle 4.02539e-015 -1.47101e-014
rhumerus -37.6784 -20.8704 -77.4668
rradius 31.5998
rwrist 0.700889
rhand -7.51101 -53.277
rfingers 7.12502
rthumb 18.3793 -82.4288
lclavicle 4.02539e-015 -1.47101e-014
lhumerus -28.3914 9.96758 79.927
lradius 18.6827
lwrist -6.08225
lhand -21.2734 -11.6702
lfingers 7.12502
lthumb 5.11039 18.2481
rfemur -23.6095 7.55537 18.0072
rtibia 4.90475
rfoot -18.8788 -12.4349
rtoes -31.072
lfemur -25.7691 -10.9486 -17.7038
ltibia 8.22854
lfoot -8.99604 5.67218
ltoes -41.2166
8
root 8.14446 16.305 31.1931 -151.724 -2.16675 178.138
lowerback -29.7088 -1.40311 -6.96841
upperback -1.3253 -0.119225 -0.336454
thorax 14.1483 -0.767794 3.30441
lowerneck -7.48328 -2.83251 0.899058
upperneck 6.73174 -4.31434 3.87645
head 3.5883 -1.98899 0.881586
rclavicle -9.93923e-016 1.98785e-015
rhumerus -37.8433 -20.7074 -77.4119
rradius 31.6564
rwrist 0.580642
rhand -7.5718 -53.4599
rfingers 7.12502
rthumb 18.3208 -82.6172
lclavicle -9.93923e-016 1.98785e-015
lhumerus -28.5145 9.94745 79.9758
lradius 18.7081
lwrist -6.03566
lhand -21.4591 -11.4376
lfingers 7.12502
lthumb 4.93109 18.485
rfemur -23.7952 7.65781 17.9392
rtibia 4.82203
rfoot -18.8087 -12.498
rtoes -31.3584
lfemur -26.0108 -10.7458 -17.7267
ltibia 8.3106
lfoot -8.91531 5.61806
ltoes -41.5295
9
root 8.14513 16.3066 31.1865 -151.783 -2.17931 178.156
lowerback -29.6627 -1.39324 -6.95933
upperback -1.33985 -0.115695 -0.322773
thorax 14.1104 -0.76444 3.3164
lowerneck -7.27293 -2.77923 0.678672
upperneck 6.60421 -4.23317 4.11591
head 3.51469 -1.95104 1.00692
rclavicle 3.52843e-015 -2.38542e-015
rhumerus -37.9536 -20.7245 -77.3339
rradius 31.6421
rwrist 0.557067
rhand -7.58432 -53.4217
rfingers 7.12502
rthumb 18.3088 -82.5801
lclavicle 3.52843e-015 -2.38542e-015
lhumerus -28.6131 10.0908 79.9143
lradius 18.6955
lwrist -6.22538
lhand -21.4884 -11.5229
lfingers 7.12502
lthumb 4.90281 18.4004
rfemur -23.5964 7.68195 17.9757
rtibia 4.61211
rfoot -18.7318 -12.5238
rtoes -31.6589
lfemur -25.9001 -10.7854 -17.715
ltibia 8.27597
lfoot -8.91949 5.70381
ltoes -42.5653
10
root 8.14784 16.3066 31.1863 -151.71 -2.23648 178.115
lowerback -29.6815 -1.38883 -6.97461
upperback -1.3674 -0.104123 -0.370148
thorax 14.0847 -0.76009 3.27658
lowerneck -7.2337 -2.75054 0.632547
upperneck 6.60974 -4.20154 4.22154
head 3.51296 -1.93395 1.05213
rclavicle 1.73937e-015 -1.23246e-014
rhumerus -38.0052 -20.8207 -77.3225
rradius 31.6112
rwrist 0.542171
rhand -7.62416 -53.3289
rfingers 7.12502
rthumb 18.2704 -82.4909
lclavicle 1.73937e-015 -1.23246e-014
lhumerus -28.6252 10.1128 79.8276
lradius 18.714
lwrist -6.35805
lhand -21.3812 -11.8208
lfingers 7.12502
lthumb 5.00626 18.1001
rfemur -23.6912 7.319 18.0475
rtibia 4.69254
rfoot -18.8599 -12.2266
rtoes -31.6739
lfemur -25.9766 -10.7182 -17.7521
ltibia 8.26767
lfoot -8.87787 5.64187
ltoes -43.2848
11
root 8.14298 16.3059 31.1781 -151.785 -2.16134 178.14
lowerback -29.7091 -1.27414 -6.84255
upperback -1.30295 0.0282968 -0.46469
thorax 14.16 -0.690621 3.15479
lowerneck -7.33623 -2.78341 0.808763
upperneck 6.77226 -4.26683 4.1148
head 3.58297 -1.96249 0.980634
rclavicle -2.08724e-015 -1.63003e-014
rhumerus -38.0033 -20.9895 -77.3256
rradius 31.5642
rwrist 0.552077
rhand -7.66668 -53.4131
rfingers 7.12502
rthumb 18.2295 -82.5789
lclavicle -2.08724e-015 -1.63003e-014
lhumerus -28.5419 9.93741 79.8026
lradius 18.7459
lwrist -6.35639
lhand -21.2971 -12.2036
lfingers 7.12502
lthumb 5.08748 17.7154
rfemur -23.6525 6.82221 18.142
rtibia 4.79613
rfoot -18.9346 -11.6846
rtoes -31.4684
lfemur -25.7743 -10.8869 -17.7323
ltibia 8.07207
lfoot -8.74942 5.9211
ltoes -43.3821
12
root 8.14513 16.3093 31.1753 -151.913 -2.11686 178.148
lowerback -29.5788 -1.20762 -6.82372
upperback -1.26485 0.119283 -0.528559
thorax 14.1363 -0.643064 3.11308
lowerneck -7.54847 -2.92473 1.14839
upperneck 7.09615 -4.48658 3.80638
head 3.72299 -2.06653 0.802673
rclavicle -2.83268e-015 1.31198e-014
rhumerus -37.9987 -21.1744 -77.3072
rradius 31.4834
rwrist 0.578352
rhand -7.56233 -53.3977
rfingers 7.12502
rthumb 18.3299 -82.554
lclavicle -2.83268e-015 1.31198e-014
lhumerus -28.4611 9.71063 79.8018
lradius 18.753
lwrist -6.25651
lhand -21.3034 -12.4449
lfingers 7.12502
lthumb 5.0814 17.4742
rfemur -23.4929 6.92446 18.183
rtibia 4.78433
rfoot -18.8305 -11.7255
rtoes -31.3461
lfemur -25.5725 -10.718 -17.8177
ltibia 8.00696
lfoot -8.69102 5.8167
ltoes -43.483
13
root 8.14574 16.307 31.1737 -151.83 -2.10815 178.116
lowerback -29.673 -1.21103 -6.74489
upperback -1.26563 0.0998318 -0.597476
thorax 14.1808 -0.648648 2.98622
lowerneck -8.15343 -3.2032 1.86901
upperneck 7.83295 -4.89651 2.86962
head 4.05806 -2.2663 0.326911
rclavicle -6.75868e-015 -7.95139e-016
rhumerus -37.9578 -21.1615 -77.3872
rradius 31.4316
rwrist 0.581246
rhand -7.29785 -53.2174
rfingers 7.12502
rthumb 18.5843 -82.3496
lclavicle -6.75868e-015 -7.95139e-016
lhumerus -28.4145 9.65265 79.7391
lradius 18.7873
lwrist -6.09161
lhand -21.2977 -12.3834
lfingers 7.12502
lthumb 5.08693 17.5355
rfemur -23.5687 7.14873 18.0914
rtibia 4.7701
rfoot -18.7466 -11.9703
rtoes -31.6317
lfemur -25.7045 -10.7494 -17.838
ltibia 8.09966
lfoot -8.72725 5.88193
ltoes -43.3185
14
root 8.14972 16.3053 31.1791 -151.654 -2.1646 178.068
lowerback -29.7169 -1.30942 -6.85366
upperback -1.31448 -0.00899662 -0.535528
thorax 14.1528 -0.707607 3.06823
lowerneck -7.80614 -2.94941 1.53784
upperneck 7.70491 -4.53033 3.13063
head 3.95799 -2.09071 0.5008
rclavicle 4.27387e-015 -7.15625e-015
rhumerus -37.8811 -21.0624 -77.3576
rradius 31.4075
rwrist 0.556495
rhand -7.13228 -53.1723
rfingers 7.12502
rthumb 18.7436 -82.2892
lclavicle 4.27387e-015 -7.15625e-015
lhumerus -28.3917 9.98897 79.7153
lradius 18.817
lwrist -6.20268
lhand -20.9925 -12.6802
lfingers 7.12502
lthumb 5.38161 17.2314
rfemur -23.7852 7.247 18.0213
rtibia 4.79514
rfoot -18.7205 -12.1502
rtoes -31.507
lfemur -26.0167 -10.6569 -17.8448
ltibia 8.27482
lfoot -8.75458 5.70851
ltoes -42.6123
15
root 8.14968 16.3058 31.1744 -151.712 -2.13613 178.142
lowerback -29.7208 -1.28495 -6.75725
upperback -1.26608 -0.000154087 -0.52082
thorax 14.212 -0.697208 3.03667
lowerneck -8.18177 -3.26656 1.84351
upperneck 7.8305 -4.96722 2.78382
head 4.06107 -2.30432 0.29812
rclavicle -5.46658e-016 -9.93923e-015
rhumerus -37.7836 -21.1557 -77.3467
rradius 31.3355
rwrist 0.642485
rhand -7.07802 -53.2086
rfingers 7.12502
rthumb 18.7958 -82.3205
lclavicle -5.46658e-016 -9.93923e-015
lhumerus -28.3169 10.1692 79.6855
lradius 18.8471
lwrist -6.25758
lhand -20.9658 -12.3582
lfingers 7.12502
lthumb 5.40741 17.5528
rfemur -23.7291 7.14704 18.1342
rtibia 4.82226
rfoot -18.8016 -11.9425
rtoes -30.9574
lfemur -25.9355 -10.5813 -17.7959
ltibia 8.28939
lfoot -8.76978 5.73494
ltoes -43.1283
